<!-- AWS Fundamentals - Cloud Computing Thumbnail -->
<svg width="1280" height="720" viewBox="0 0 1280 720" xmlns="http://www.w3.org/2000/svg">
  <!-- Background Gradient -->
  <defs>
    <linearGradient id="bg" x1="0%" y1="0%" x2="100%" y2="100%">
      <stop offset="0%" style="stop-color:#1e293b;stop-opacity:1" />
      <stop offset="100%" style="stop-color:#0f172a;stop-opacity:1" />
    </linearGradient>
    <linearGradient id="accent" x1="0%" y1="0%" x2="100%" y2="0%">
      <stop offset="0%" style="stop-color:#3b82f6;stop-opacity:1" />
      <stop offset="100%" style="stop-color:#8b5cf6;stop-opacity:1" />
    </linearGradient>
  </defs>
  
  <!-- Background -->
  <rect width="1280" height="720" fill="url(#bg)"/>
  
  <!-- Cloud Icon -->
  <g transform="translate(100, 200)">
    <path d="M128 320c0-53.02 42.98-96 96-96 35.8 0 67.12 19.58 83.2 48.64C324.8 251.2 352 256 352 256s64-32 112 0c48 32 48 96 0 128H96c-53.02 0-96-42.98-96-96z" 
          fill="url(#accent)" opacity="0.3"/>
    <path d="M200 280c26.51 0 48-21.49 48-48s-21.49-48-48-48-48 21.49-48 48 21.49 48 48 48z" 
          fill="url(#accent)" opacity="0.5"/>
  </g>
  
  <!-- Title -->
  <text x="500" y="300" font-family="Arial, sans-serif" font-size="72" font-weight="bold" fill="white">
    What is Cloud Computing?
  </text>
  
  <!-- Subtitle -->
  <text x="500" y="360" font-family="Arial, sans-serif" font-size="36" fill="#94a3b8">
    Foundation Concepts • 15 minutes
  </text>
  
  <!-- CloudCrew Academy Logo Area -->
  <rect x="500" y="420" width="400" height="80" rx="40" fill="url(#accent)" opacity="0.2"/>
  <text x="700" y="470" font-family="Arial, sans-serif" font-size="28" font-weight="bold" 
        fill="white" text-anchor="middle">CloudCrew Academy</text>
  
  <!-- Progress Indicator -->
  <rect x="500" y="550" width="400" height="8" rx="4" fill="#334155"/>
  <rect x="500" y="550" width="40" height="8" rx="4" fill="url(#accent)"/>
  <text x="500" y="580" font-family="Arial, sans-serif" font-size="18" fill="#64748b">
    Lesson 1.1 of 24
  </text>
</svg>